<svg xmlns="http://www.w3.org/2000/svg" viewBox="0 0 1500 620" font-family="'Segoe UI', Inter, system-ui, Arial, sans-serif">
  <defs>
    <linearGradient id="nStore" x1="0" y1="0" x2="0" y2="1">
      <stop offset="0%" stop-color="#ffffff"/><stop offset="100%" stop-color="#eef4fb"/>
    </linearGradient>
    <linearGradient id="nCompute" x1="0" y1="0" x2="0" y2="1">
      <stop offset="0%" stop-color="#ffffff"/><stop offset="100%" stop-color="#fff4e6"/>
    </linearGradient>
    <linearGradient id="nTrigger" x1="0" y1="0" x2="0" y2="1">
      <stop offset="0%" stop-color="#ffffff"/><stop offset="100%" stop-color="#fdeaf0"/>
    </linearGradient>
    <linearGradient id="nAI" x1="0" y1="0" x2="0" y2="1">
      <stop offset="0%" stop-color="#ffffff"/><stop offset="100%" stop-color="#f0ebfa"/>
    </linearGradient>
    <linearGradient id="nOut" x1="0" y1="0" x2="0" y2="1">
      <stop offset="0%" stop-color="#ffffff"/><stop offset="100%" stop-color="#ebf5ec"/>
    </linearGradient>

    <marker id="arrow" viewBox="0 0 10 10" refX="9" refY="5" markerWidth="8" markerHeight="8" orient="auto-start-reverse">
      <path d="M0,0 L10,5 L0,10 z" fill="#5b6b7a"/>
    </marker>
    <marker id="arrowDark" viewBox="0 0 10 10" refX="9" refY="5" markerWidth="8" markerHeight="8" orient="auto-start-reverse">
      <path d="M0,0 L10,5 L0,10 z" fill="#0d1b2a"/>
    </marker>

    <filter id="shadow" x="-20%" y="-20%" width="140%" height="160%">
      <feDropShadow dx="0" dy="1.5" stdDeviation="2.5" flood-color="#0a1f33" flood-opacity="0.12"/>
    </filter>

    <style>
      .title     { fill:#0d1b2a; font-weight:700; font-size:22px; letter-spacing:-0.2px; }
      .subtitle  { fill:#5b6b7a; font-size:13px; }
      .lane      { fill:#5b6b7a; font-size:11px; letter-spacing:1.8px; font-weight:600; }
      .label     { fill:#0d1b2a; font-weight:600; font-size:13px; }
      .small     { fill:#5b6b7a; font-size:11px; }
      .kind      { font-size:10px; letter-spacing:1.3px; font-weight:600; }
      .edge      { stroke:#5b6b7a; stroke-width:1.4; fill:none; }
      .edgeStrong{ stroke:#0d1b2a; stroke-width:1.8; fill:none; }
      .edgeLabel { fill:#0d1b2a; font-size:11px; font-weight:500; }
      .edgeBg    { fill:#fafbfc; }
      .legendT   { fill:#5b6b7a; font-size:11px; }
    </style>
  </defs>

  <!-- Title -->
  <text x="40" y="42" class="title">Semantic Model Optimization Recommendation Pipeline</text>
  <text x="40" y="62" class="subtitle">Self-healing observability loop for Power BI semantic models in Microsoft Fabric</text>

  <!-- Workspace container -->
  <rect x="30" y="90" width="1440" height="460" rx="12" ry="12"
        fill="#fafbfc" stroke="#cfd8e3" stroke-width="1" stroke-dasharray="4 4"/>
  <text x="48" y="112" class="lane">FABRIC WORKSPACE</text>

  <!-- ===== DETECT (vertical column, left) ===== -->
  <text x="80" y="140" class="lane">DETECT</text>

  <!-- Semantic Models -->
  <g filter="url(#shadow)">
    <rect x="80" y="155" width="200" height="68" rx="10" fill="url(#nStore)" stroke="#1e88e5" stroke-width="1.2"/>
    <text x="94" y="178" class="kind" fill="#1565c0">DATA</text>
    <text x="180" y="202" text-anchor="middle" class="label">Semantic Models</text>
  </g>

  <!-- Eventhouse -->
  <g filter="url(#shadow)">
    <rect x="80" y="275" width="200" height="68" rx="10" fill="url(#nStore)" stroke="#1e88e5" stroke-width="1.2"/>
    <text x="94" y="298" class="kind" fill="#1565c0">EVENTHOUSE</text>
    <text x="180" y="322" text-anchor="middle" class="label">SemanticModelLogs</text>
  </g>

  <!-- Activator -->
  <g filter="url(#shadow)">
    <rect x="80" y="395" width="200" height="68" rx="10" fill="url(#nTrigger)" stroke="#d81b60" stroke-width="1.2"/>
    <text x="94" y="418" class="kind" fill="#ad1457">ACTIVATOR</text>
    <text x="180" y="442" text-anchor="middle" class="label">Long-Running Query</text>
  </g>

  <!-- DETECT vertical edges -->
  <path class="edge" d="M180 223 L180 275" marker-end="url(#arrow)"/>
  <rect class="edgeBg" x="156" y="240" width="48" height="14" rx="3"/>
  <text class="edgeLabel" x="180" y="251" text-anchor="middle">monitor</text>

  <path class="edge" d="M180 343 L180 395" marker-end="url(#arrow)"/>
  <rect class="edgeBg" x="160" y="360" width="40" height="14" rx="3"/>
  <text class="edgeLabel" x="180" y="371" text-anchor="middle">KQL</text>

  <!-- ===== PIPELINE container (right) ===== -->
  <rect x="350" y="135" width="1100" height="395" rx="12" ry="12"
        fill="#ffffff" stroke="#fb8c00" stroke-width="1.4" stroke-dasharray="6 4" opacity="0.95"/>
  <text x="370" y="158" class="lane" fill="#e65100">PIPELINE · OPTIMIZATION ORCHESTRATOR</text>
  <text x="370" y="174" class="small">params: workspace_id · item_id · event_text</text>

  <!-- AOAI (callout, top inside pipeline) -->
  <g filter="url(#shadow)">
    <rect x="430" y="200" width="200" height="60" rx="10" fill="url(#nAI)" stroke="#5e35b1" stroke-width="1.2"/>
    <text x="446" y="222" class="kind" fill="#4527a0">AI</text>
    <text x="530" y="244" text-anchor="middle" class="label">Azure OpenAI</text>
  </g>

  <!-- Notebook -->
  <g filter="url(#shadow)">
    <rect x="400" y="320" width="220" height="80" rx="10" fill="url(#nCompute)" stroke="#fb8c00" stroke-width="1.2"/>
    <text x="416" y="343" class="kind" fill="#e65100">NOTEBOOK</text>
    <text x="510" y="367" text-anchor="middle" class="label">BPA + VertiPaq Analysis</text>
    <text x="510" y="385" text-anchor="middle" class="small">sempy_labs</text>
  </g>

  <!-- Lakehouse -->
  <g filter="url(#shadow)">
    <rect x="680" y="320" width="180" height="80" rx="10" fill="url(#nStore)" stroke="#1e88e5" stroke-width="1.2"/>
    <text x="696" y="343" class="kind" fill="#1565c0">LAKEHOUSE</text>
    <text x="770" y="367" text-anchor="middle" class="label">Optimizer</text>
    <text x="770" y="385" text-anchor="middle" class="small">Files/Optimizer/*.json</text>
  </g>

  <!-- Lookup -->
  <g filter="url(#shadow)">
    <rect x="920" y="320" width="180" height="80" rx="10" fill="url(#nCompute)" stroke="#fb8c00" stroke-width="1.2"/>
    <text x="936" y="343" class="kind" fill="#e65100">LOOKUP</text>
    <text x="1010" y="367" text-anchor="middle" class="label">Read JSON</text>
    <text x="1010" y="385" text-anchor="middle" class="small">load HTML body</text>
  </g>

  <!-- Email -->
  <g filter="url(#shadow)">
    <rect x="1160" y="320" width="190" height="80" rx="10" fill="url(#nOut)" stroke="#2e7d32" stroke-width="1.2"/>
    <text x="1176" y="343" class="kind" fill="#1b5e20">DELIVERY</text>
    <text x="1255" y="367" text-anchor="middle" class="label">Office 365 Email</text>
    <text x="1255" y="385" text-anchor="middle" class="small">HTML report</text>
  </g>

  <!-- ===== Pipeline-internal edges ===== -->

  <!-- Notebook <-> AOAI -->
  <path class="edge" d="M490 320 L490 260" marker-end="url(#arrow)"/>
  <rect class="edgeBg" x="468" y="282" width="46" height="14" rx="3"/>
  <text class="edgeLabel" x="491" y="293" text-anchor="middle">prompt</text>

  <path class="edge" d="M540 260 L540 320" marker-end="url(#arrow)"/>
  <rect class="edgeBg" x="522" y="282" width="36" height="14" rx="3"/>
  <text class="edgeLabel" x="540" y="293" text-anchor="middle">fixes</text>

  <!-- Notebook -> Lakehouse (write) -->
  <path class="edge" d="M620 360 L680 360" marker-end="url(#arrow)"/>
  <rect class="edgeBg" x="624" y="345" width="50" height="14" rx="3"/>
  <text class="edgeLabel" x="649" y="356" text-anchor="middle">write</text>

  <!-- Lakehouse -> Lookup (read) -->
  <path class="edge" d="M860 360 L920 360" marker-end="url(#arrow)"/>
  <rect class="edgeBg" x="868" y="345" width="46" height="14" rx="3"/>
  <text class="edgeLabel" x="891" y="356" text-anchor="middle">read</text>

  <!-- Lookup -> Email -->
  <path class="edge" d="M1100 360 L1160 360" marker-end="url(#arrow)"/>
  <rect class="edgeBg" x="1108" y="345" width="46" height="14" rx="3"/>
  <text class="edgeLabel" x="1131" y="356" text-anchor="middle">send</text>

  <!-- ===== Cross-lane edges ===== -->

  <!-- Activator -> Notebook (trigger entering pipeline) -->
  <path class="edgeStrong" d="M280 429 C 340 429, 340 360, 400 360" marker-end="url(#arrowDark)"/>
  <rect class="edgeBg" x="288" y="385" width="56" height="14" rx="3"/>
  <text class="edgeLabel" x="316" y="396" text-anchor="middle">trigger</text>

  <!-- Notebook -> Semantic Models (BPA + VertiPaq, dashed back up to detect lane) -->
  <path class="edge" d="M400 330 C 330 330, 330 189, 280 189"
        marker-end="url(#arrow)" stroke-dasharray="5 4"/>
  <rect class="edgeBg" x="296" y="246" width="130" height="14" rx="3"/>
  <text class="edgeLabel" x="361" y="257" text-anchor="middle">XMLA · BPA + VertiPaq</text>

  <!-- Email -> Inbox (exits pipeline to the right) -->
  <g filter="url(#shadow)">
    <rect x="1380" y="335" width="70" height="50" rx="10" fill="#ffffff" stroke="#90a4ae" stroke-width="1.2"/>
    <text x="1415" y="365" text-anchor="middle" class="label">✉</text>
    <text x="1415" y="380" text-anchor="middle" class="small">Inbox</text>
  </g>
  <path class="edge" d="M1350 360 L1380 360" marker-end="url(#arrow)"/>

  <!-- ===== LEGEND ===== -->
  <g transform="translate(40, 580)">
    <text x="0" y="0" class="kind" fill="#0d1b2a">LEGEND</text>
    <g transform="translate(0,12)">
      <rect x="0" y="0" width="12" height="12" rx="2" fill="url(#nStore)" stroke="#1e88e5"/>
      <text x="20" y="10" class="legendT">Storage</text>
      <rect x="90" y="0" width="12" height="12" rx="2" fill="url(#nCompute)" stroke="#fb8c00"/>
      <text x="110" y="10" class="legendT">Compute</text>
      <rect x="190" y="0" width="12" height="12" rx="2" fill="url(#nTrigger)" stroke="#d81b60"/>
      <text x="210" y="10" class="legendT">Trigger</text>
      <rect x="280" y="0" width="12" height="12" rx="2" fill="url(#nAI)" stroke="#5e35b1"/>
      <text x="300" y="10" class="legendT">AI</text>
      <rect x="340" y="0" width="12" height="12" rx="2" fill="url(#nOut)" stroke="#2e7d32"/>
      <text x="360" y="10" class="legendT">Delivery</text>
      <line x1="430" y1="6" x2="460" y2="6" stroke="#5b6b7a" stroke-width="1.4" stroke-dasharray="5 4"/>
      <text x="468" y="10" class="legendT">Cross-lane call</text>
    </g>
  </g>
</svg>
